<?xml version="1.0" standalone="no"?>
<!DOCTYPE svg PUBLIC "-//W3C//DTD SVG 1.1//EN" "http://www.w3.org/Graphics/SVG/1.1/DTD/svg11.dtd" >
<svg xmlns="http://www.w3.org/2000/svg">
<metadata>
This is a custom SVG font generated by IcoMoon.
<iconset grid="48"></iconset>
</metadata>
<defs>
<font id="loops105" horiz-adv-x="1536" >
<font-face units-per-em="1536" ascent="1472" descent="-64" />
<missing-glyph horiz-adv-x="1536" />
<glyph unicode="&#x5f;" d="M 1310.976,160.928c-299.808-299.904-786.144-299.904-1086.048,0
	c-299.904,300-299.904,786.144,0,1086.144c 299.904,299.904, 786.24,299.904, 1086.048,0C 1610.976,947.072, 1610.976,460.928, 1310.976,160.928z M 1248,1088
	c0,105.984-86.016,192-192,192L 480,1280 C 374.016,1280, 288,1193.984, 288,1088l0-768 c0-105.984, 86.016-192, 192-192l 576,0 c 105.984,0, 192,86.016, 192,192L 1248,1088 z M 960,320L 576,320 c-53.088,0-96,42.912-96,96l0,96 
	c0,53.088, 42.912,96, 96,96l 384,0 c 53.088,0, 96-42.912, 96-96l0-96 C 1056,362.912, 1013.088,320, 960,320z M 816,512l-96,0 C 693.6,512, 672,490.496, 672,464S 693.6,416, 720,416l 96,0 
	C 842.4,416, 864,437.504, 864,464S 842.4,512, 816,512z M 960,800L 576,800 C 522.912,800, 480,842.912, 480,896L 480,992 c0,53.088, 42.912,96, 96,96l 384,0 c 53.088,0, 96-42.912, 96-96l0-96 
	C 1056,842.912, 1013.088,800, 960,800z M 816,992l-96,0 C 693.6,992, 672,970.496, 672,944S 693.6,896, 720,896l 96,0 C 842.4,896, 864,917.504, 864,944S 842.4,992, 816,992z" data-tags="cabinet, storage, archive, drawer" />
<glyph unicode="&#x5e;" d="M 1311.072,160.928c-300-299.904-786.144-299.904-1086.144,0
	c-299.904,300-299.904,786.144,0,1086.144c 300,299.904, 786.144,299.904, 1086.144,0C 1610.976,947.072, 1610.976,460.928, 1311.072,160.928z M 768,1280
	C 449.952,1280, 192,1022.048, 192,704s 257.952-576, 576-576s 576,257.952, 576,576S 1086.048,1280, 768,1280z M 843.36,701.888L 1152,701.888 L 1152,608 L 843.36,608 L 843.36,701.888 z M 480,750.944L 672,848L 480,945.056L 480,1089.536 L 864,848
	L 480,606.368L 480,750.944 z" data-tags="code, command line" />
<glyph unicode="&#x6f;" d="M 1311.072,160.928c-300-299.904-786.144-299.904-1086.144,0
	c-299.904,300-299.904,786.144,0,1086.144c 300,299.904, 786.144,299.904, 1086.144,0C 1610.976,947.072, 1610.976,460.928, 1311.072,160.928z M 1200,992
	C 1120.512,992, 1056,927.488, 1056,848c0-27.264, 9.6-51.264, 22.752-73.056l-112.224-168.288c-0.096,0-0.192,0-0.288,0l-129.12,258.24
	C 852.768,887.936, 864,914.048, 864,944C 864,1023.488, 799.488,1088, 720,1088S 576,1023.488, 576,944c0-30.336, 11.52-56.928, 27.552-80.16L 471.552,600.032
	C 458.784,603.776, 446.016,608, 432,608C 352.512,608, 288,543.488, 288,464S 352.512,320, 432,320S 576,384.512, 576,464c0,30.336-11.52,56.928-27.552,80.16l 131.904,263.808
	C 693.216,804.224, 705.984,800, 720,800c 13.728,0, 26.016,4.224, 38.4,7.776l 122.304-244.704C 871.008,548.096, 864,531.2, 864,512c0-53.088, 42.912-96, 96-96s 96,42.912, 96,96
	c0,15.456-4.704,29.472-11.232,42.24l 106.368,159.552C 1166.496,708.224, 1182.624,704, 1200,704C 1279.488,704, 1344,768.512, 1344,848S 1279.488,992, 1200,992z" data-tags="analytics, stats, graph" />
<glyph unicode="&#x5d;" d="M 575.841,704c0-105.951, 86.049-192, 192-192s 192,86.049, 192,192l0,1.599 
	c-20.511-20.799-48.639-33.6-80.001-33.6c-61.791,0-111.999,50.241-111.999,111.999c0,44.481, 26.208,83.199, 63.681,101.121c-19.839,7.041-41.28,10.881-63.681,10.881
	C 661.92,896, 575.841,809.921, 575.841,704z M 1492.959,813.119C 1373.919,964.481, 1083.999,1216.001, 768.159,1216.001c-316.161,0-606.369-251.52-725.439-402.879
	c-26.88-34.56-41.601-72-42.561-109.119c 0.96-37.119, 15.681-74.559, 42.561-109.119C 161.793,443.489, 451.68,191.999, 767.841,191.999s 606.048,251.487, 725.121,402.879
	c 27.201,34.56, 41.919,72, 42.879,109.119C 1534.881,741.119, 1520.16,778.559, 1492.959,813.119z M 767.841,383.999c-176.64,0-320.001,143.361-320.001,320.001c0,176.64, 143.361,320.001, 320.001,320.001
	s 320.001-143.361, 320.001-320.001C 1087.839,527.36, 944.481,383.999, 767.841,383.999z" data-tags="eye, views" />
<glyph unicode="&#x5c;" d="M 1088.001,1072.001c0-44.16, 35.841-80.001, 80.001-80.001s 80.001,35.841, 80.001,80.001S 1212.159,1151.999, 1167.999,1151.999
	S 1088.001,1116.161, 1088.001,1072.001z M 288,640.001l0-87.999 C 288,512.321, 320.319,479.999, 360,479.999L 1248,479.999 l-305.952,300.801c-25.599,25.599-66.561,25.599-92.127,0l-64.671-63.681l-163.233,159.681
	c-25.599,25.599-71.649,25.599-96.927,0L 288,640.001z M0,95.999c0-70.719, 57.279-128.001, 128.001-128.001l 1280.001,0 c 70.719,0, 128.001,57.279, 128.001,128.001L 1536,1312.001 c0,70.719-57.279,128.001-128.001,128.001L 128.001,1439.999 C 57.279,1439.999,0,1382.72,0,1312.001L0,95.999 z
	 M 230.4,1280l 1075.2,0 C 1344.639,1280, 1376.001,1248.641, 1376.001,1209.599l0-787.2 c0-39.039-31.359-70.401-70.401-70.401L 230.4,352.001 C 191.361,352.001, 159.999,383.36, 159.999,422.399L 159.999,1209.599 C 159.999,1248.641, 191.361,1280, 230.4,1280z" data-tags="pictures, images, photos" />
<glyph unicode="&#x5b;" d="M 672,976.001c0,44.16, 35.841,80.001, 80.001,80.001s 80.001-35.841, 80.001-80.001S 796.161,896, 752.001,896
	S 672,931.841, 672,976.001z M 752.001,1184c-114.879,0-207.999-93.12-207.999-207.999s 93.12-207.999, 207.999-207.999s 207.999,93.12, 207.999,207.999S 866.88,1184, 752.001,1184z M 576,224c 35.199,0, 63.999-28.8, 63.999-63.999
	s-28.8-63.999-63.999-63.999l-240,0 C 291.84,95.999, 255.999,60.161, 255.999,16.001S 291.84-64, 336-64l 831.999,0 c 44.16,0, 80.001,35.841, 80.001,80.001S 1212.159,95.999, 1167.999,95.999L 927.999,95.999 c-35.199,0-63.999,28.8-63.999,63.999
	s 28.8,63.999, 63.999,63.999l 192,0 c 70.719,0, 128.001,57.279, 128.001,128.001L 1248,1343.999 c0,70.719-57.279,128.001-128.001,128.001L 384,1472 C 313.281,1472, 255.999,1414.721, 255.999,1343.999l0-992.001 c0-70.719, 57.279-128.001, 128.001-128.001L 576,224 z M 927.999,464
	c0,44.16, 35.841,80.001, 80.001,80.001s 80.001-35.841, 80.001-80.001S 1052.16,383.999, 1008,383.999S 927.999,419.84, 927.999,464z M 752.001,1312.001C 937.599,1312.001, 1088.001,1161.599, 1088.001,976.001S 937.599,640.001, 752.001,640.001
	S 416.001,790.4, 416.001,976.001S 566.4,1312.001, 752.001,1312.001z" data-tags="speaker" />
<glyph unicode="&#x5a;" d="M0,64.001c0-70.719, 57.279-128.001, 128.001-128.001l 1280.001,0 c 70.719,0, 128.001,57.279, 128.001,128.001L 1536,416 c0,70.719-57.279,128.001-128.001,128.001L 1023.999,544.001 L 1023.999,880.001 
	c0,44.16-35.841,80.001-80.001,80.001S 864,924.161, 864,880.001L 864,544.001 L 128.001,544.001 c-70.719,0-128.001-57.279-128.001-128.001L0,64.001 z M 159.999,239.999C 159.999,284.159, 195.84,320, 240,320s 80.001-35.841, 80.001-80.001
	S 284.16,160.001, 240,160.001S 159.999,195.839, 159.999,239.999z M 447.999,239.999c0,44.16, 35.841,80.001, 80.001,80.001s 80.001-35.841, 80.001-80.001S 572.16,160.001, 528,160.001S 447.999,195.839, 447.999,239.999z M 944.001,1216.001
	C 758.4,1216.001, 608.001,1065.599, 608.001,880.001c0-44.16, 35.841-80.001, 80.001-80.001s 80.001,35.841, 80.001,80.001c0,97.281, 78.72,176.001, 176.001,176.001s 176.001-78.72, 176.001-176.001
	c0-44.16, 35.841-80.001, 80.001-80.001s 80.001,35.841, 80.001,80.001C 1280.001,1065.599, 1129.599,1216.001, 944.001,1216.001z M 944.001,1472C 616.959,1472, 351.999,1207.040, 351.999,880.001c0-44.16, 35.841-80.001, 80.001-80.001
	s 80.001,35.841, 80.001,80.001C 512.001,1118.72, 705.279,1312.001, 944.001,1312.001S 1376.001,1118.72, 1376.001,880.001c0-44.16, 35.841-80.001, 80.001-80.001s 80.001,35.841, 80.001,80.001C 1536,1207.040, 1271.073,1472, 944.001,1472z" data-tags="modem, wifi" />
<glyph unicode="&#x59;" d="M 1311.072,160.928c-300-299.904-786.144-299.904-1086.144,0
	c-299.904,300-299.904,786.144,0,1086.144c 300,299.904, 786.144,299.904, 1086.144,0C 1610.976,947.072, 1610.976,460.928, 1311.072,160.928z M 266.688,262.688
	l 337.056,67.488L 334.176,599.744L 266.688,262.688z M 400.512,648.128l 255.552-255.552l 415.296,415.2L 815.808,1063.328L 400.512,648.128z M 1215.072,1079.36l-127.776,127.776
	c-35.232,35.232-94.848,32.928-133.056-5.376c-38.208-38.208-40.704-97.92-5.376-133.152l 127.776-127.776c 35.232-35.232, 94.848-32.928, 133.152,5.376
	C 1248,984.512, 1250.4,1044.032, 1215.072,1079.36z" />
<glyph unicode="&#x58;" d="M 1311.072,160.928c-300-299.904-786.144-299.904-1086.144,0
	c-299.904,300-299.904,786.144,0,1086.144c 300,299.904, 786.144,299.904, 1086.144,0C 1610.976,947.072, 1610.976,460.928, 1311.072,160.928z M 768,1184
	C 662.016,1184, 576,1097.984, 576,992s 86.016-288, 192-288s 192,182.016, 192,288S 873.984,1184, 768,1184z M 1152,512c0,115.008-90.624,163.68-220.704,182.016C 876.864,644.768, 815.136,608, 768,608
	S 659.136,644.768, 604.704,694.016C 474.624,675.68, 384,627.008, 384,512l0-96 c0-53.088, 42.912-96, 96-96l 576,0 c 53.088,0, 96,42.912, 96,96L 1152,512 z" />
<glyph unicode="&#x57;" d="M 768,896c 52.992,0, 96,43.008, 96,96L 864,1376 c0,53.088-43.008,96-96,96C 714.912,1472, 672,1429.088, 672,1376l0-384 
		C 672,939.008, 714.912,896, 768,896zM 1310.976,1247.072C 1210.368,1347.776, 1088.544,1413.824, 960,1446.944l0-303.456 
		C 1129.44,1069.376, 1248,900.704, 1248,704c0-265.152-214.848-480-480-480s-480,214.848-480,480c0,196.704, 118.56,365.376, 288,439.488L 576,1446.944 
		C 447.456,1413.824, 325.632,1347.776, 224.928,1247.072c-299.904-299.904-299.904-786.24,0-1086.048c 299.904-300, 786.24-300, 1086.048,0
		C 1610.976,460.832, 1610.976,947.168, 1310.976,1247.072z" />
<glyph unicode="&#x56;" d="M 1311.072,160.928c-300-299.904-786.144-299.904-1086.144,0
	c-299.904,299.904-299.904,786.24,0,1086.144c 300,299.904, 786.144,299.904, 1086.144,0C 1610.976,947.168, 1610.976,460.832, 1311.072,160.928z M 384,886.304L 384,1088 L 288,1088 l0-201.696 
	C 232.32,866.336, 192,814.496, 192,752c0-62.4, 40.32-114.336, 96-134.208L 288,320 l 96,0 L 384,617.792 C 439.68,637.664, 480,689.6, 480,752C 480,814.496, 439.68,866.336, 384,886.304z M 672,598.208L 672,1088 L 576,1088 
	l0-489.792 C 520.32,578.336, 480,526.4, 480,464s 40.32-114.336, 96-134.304L 576,320 l 96,0 l0,9.696 c 55.68,19.968, 96,71.904, 96,134.304S 727.68,578.336, 672,598.208z M 960,982.304L 960,1088 L 864,1088 
	l0-105.696 C 808.32,962.336, 768,910.496, 768,848c0-62.4, 40.32-114.336, 96-134.208L 864,320 l 96,0 L 960,713.792 c 55.68,19.872, 96,71.808, 96,134.208C 1056,910.496, 1015.68,962.336, 960,982.304z
	 M 1248,694.208L 1248,1088 l-96,0 l0-393.792 C 1096.32,674.336, 1056,622.4, 1056,560s 40.32-114.336, 96-134.208L 1152,320 l 96,0 l0,105.792 c 55.68,19.872, 96,71.808, 96,134.208S 1303.68,674.336, 1248,694.208
	z M 1152,608l 96,0 l0-96 l-96,0 L 1152,608 z M 864,896l 96,0 l0-96 L 864,800 L 864,896 z M 576,512l 96,0 l0-96 L 576,416 L 576,512 z M 288,800l 96,0 l0-96 L 288,704 L 288,800 z" />
<glyph unicode="&#x55;" d="M 768,1472C 343.872,1472,0,1128.128,0,704c0-424.128, 343.872-768, 768-768c 424.128,0, 768,343.872, 768,768
	C 1536,1128.128, 1192.128,1472, 768,1472z M 576.768,992.864c0,105.984, 86.016,192, 192,192c 106.080,0, 192-86.016, 192-192l0-288 c0-105.984-85.92-192-192-192c-105.984,0-192,86.016-192,192L 576.768,992.864 z
	 M 864.768,320.864l0-96 l 144,0 c 26.592,0, 48-21.504, 48-48s-21.408-48-48-48l-480,0 c-26.496,0-48,21.504-48,48s 21.504,48, 48,48l 144,0 l0,96 
	c0,4.512, 2.016,8.448, 2.592,12.768c-135.744,34.080-241.92,140.256-277.056,275.232l 80.064,0 c 40.512-122.304, 154.368-211.2, 290.304-211.2
	c 135.936,0, 249.888,88.896, 290.4,211.2l 80.064,0 c-35.232-134.976-141.408-241.152-277.152-275.232C 862.848,329.312, 864.768,325.376, 864.768,320.864z" />
<glyph unicode="&#x54;" d="M 1310.976,160.928c-299.808-299.904-786.144-299.904-1086.048,0
	c-300,300-300,786.144,0,1086.144c 299.904,299.904, 786.24,299.904, 1086.048,0C 1610.976,947.072, 1610.976,460.928, 1310.976,160.928z M 1248,560
	c0,17.088-4.32,32.832-9.792,48l 0.096,0 C 1244.64,639.008, 1248,671.072, 1248,704c0,265.152-214.848,480-480,480C 502.944,1184, 288,969.152, 288,704
	c0-32.928, 3.36-64.992, 9.696-96l0,0 C 292.224,592.832, 288,577.088, 288,560l0-96 C 288,384.512, 352.416,320, 432,320S 576,384.512, 576,464l0,96 
	c0,50.688-27.84,93.312-67.488,118.848C 490.944,715.712, 480,756.32, 480,800c0,159.072, 128.928,288, 288,288c 158.976,0, 288-128.928, 288-288c0-43.68-10.848-84.288-28.512-121.152
	C 987.744,653.312, 960,610.688, 960,560l0-96 c0-79.488, 64.512-144, 144-144s 144,64.512, 144,144L 1248,560 z" />
<glyph unicode="&#x53;" d="M 576,800L 672,800L 672,704L 576,704zM 384,800L 480,800L 480,704L 384,704zM 768,800L 912,800L 912,704L 768,704zM 960,800L 1152,800L 1152,704L 960,704zM 1310.976,1247.072c-299.808,299.904-786.144,299.904-1086.048,0
		c-299.904-300-299.904-786.144,0-1086.144c 299.904-299.904, 786.24-299.904, 1086.048,0C 1610.976,460.928, 1610.976,947.072, 1310.976,1247.072z M 1248,416
		c0-53.088-42.912-96-96-96L 384,320 c-53.088,0-96,42.912-96,96l0,96 l 960,0 L 1248,416 z M 1248,608L 288,608 L 288,992 c0,53.088, 42.912,96, 96,96l 768,0 c 53.088,0, 96-42.912, 96-96L 1248,608 z" />
<glyph unicode="&#x52;" d="M 768,1472C 343.872,1472,0,1128.128,0,704c0-424.128, 343.872-768, 768-768c 424.128,0, 768,343.872, 768,768
	C 1536,1128.128, 1192.128,1472, 768,1472z M 672,224l-288,192L 384,800 l 288-211.104L 672,224 z M 1152,512l-384-288l0,288 l 384,288L 1152,512 z M 768,608L 384,896l 384,288l 384-288L 768,608z" />
<glyph unicode="&#x51;" d="M 768,1472C 343.872,1472,0,1128.128,0,704c0-424.128, 343.872-768, 768-768c 424.128,0, 768,343.872, 768,768
	C 1536,1128.128, 1192.128,1472, 768,1472z M 1061.664,608l-144-288L 815.52,320 L 728.448,929.12L 522.912,608L 192,608 L 192,704 l 288,0 l0-2.976 l 245.088,408.384l 85.92-42.912l 78.816-587.616L 1002.336,704L 1344,704 
	l0-96 L 1061.664,608 z" />
<glyph unicode="&#x50;" d="M 1311.072,160.928c-300-299.904-786.144-299.904-1086.144,0
	c-299.904,300-299.904,786.144,0,1086.144c 300,299.904, 786.144,299.904, 1086.144,0C 1610.976,947.072, 1610.976,460.928, 1311.072,160.928z M 1248,896
	c0,159.072-128.928,288-288,288L 576,1184 C 416.928,1184, 288,1055.072, 288,896l0-384 c0-159.072, 128.928-288, 288-288l 384,0 c 159.072,0, 288,128.928, 288,288L 1248,896 z M 864,512L 672,512 c-53.088,0-96,42.912-96,96L 576,800 
	c0,53.088, 42.912,96, 96,96l 192,0 c 53.088,0, 96-42.912, 96-96l0-192 C 960,554.912, 917.088,512, 864,512z M 864,800L 672,800 l0-192 l 192,0 L 864,800 z" />
<glyph unicode="&#x4f;" d="M 768,1472C 343.872,1472,0,1128.128,0,704c0-424.128, 343.872-768, 768-768c 424.128,0, 768,343.872, 768,768
	C 1536,1128.128, 1192.128,1472, 768,1472z M 1008,1184c 92.832,0, 168-76.416, 168-170.592c0-94.272-75.168-256.032-168-256.032c-36.864,0-70.56,25.92-98.208,62.496
	C 940.704,876.416, 960,942.272, 960,992c0,57.984-26.208,109.44-66.912,144.672C 923.136,1165.664, 963.264,1184, 1008,1184z M 672,1184c 105.984,0, 192-86.016, 192-192S 777.984,704, 672,704
	S 480,886.016, 480,992S 566.016,1184, 672,1184z M 1056,416c0-53.088-42.912-96-96-96L 384,320 c-53.088,0-96,42.912-96,96l0,96 c0,112.992, 87.648,161.76, 213.984,180.768
	C 548.064,642.272, 605.664,608, 672,608c 65.664,0, 122.784,33.408, 168.576,82.944l 70.752-13.248C 999.072,651.872, 1056,602.816, 1056,512L 1056,416 z M 1260,416L 1152,416 l0,96 
	c0,86.4-51.168,135.36-131.808,162.048c 39.36,5.376, 87.456,34.56, 130.656,74.304C 1264.704,732.128, 1344,689.024, 1344,586.592l0-85.344 
	C 1344,454.208, 1306.368,416, 1260,416z" />
<glyph unicode="&#x4e;" d="M 1392-64L 144-64 c-26.496,0-48,21.456-48,48L 96,752 c0,26.544, 21.504,48, 48,48l 144,0 l0,192 C 288,1257.104, 502.896,1472, 768,1472
	s 480-214.896, 480-480l0-192 l 144,0 c 26.544,0, 48-21.456, 48-48l0-768 C 1440-42.544, 1418.544-64, 1392-64z M 1056,1016C 1056,1161.824, 927.024,1280, 768,1280s-288-118.176-288-264L 480,800 l 576,0 L 1056,1016 z" />
<glyph unicode="&#x4d;" d="M 481.512-64C 155.634,119.663, 69.837,293.504, 118.89,530.933c 36.213,175.32, 169.941,317.958, 181.311,492.942
	c 50.652-92.178, 56.664-158.646, 62.325-254.97C 523.626,966.284, 690.693,1230.434, 654.57,1472c0,0, 401.424-192, 428.958-564.414
	c 36.123,76.761, 36.123,198.675,0,277.689c 108.366-79.017, 760.827-780.48-67.731-1249.275c 155.778,303.315, 40.188,712.581-230.283,901.599
	c 18.063-81.276-4.515-293.496-124.173-426.696c 27.093,137.712-40.638,225.762-40.638,225.762s-22.206-124.665-108.366-250.599
	C 433.659,271.067, 379.143,149.012, 481.512-64z" />
<glyph unicode="&#x4c;" d="M 720,416c 132.549,0, 240,107.451, 240,240L 960,1232 c0,132.549-107.451,240-240,240s-240-107.451-240-240l0-576 C 480,523.451, 587.454,416, 720,416zM 1056,800l0-144 c0-185.565-150.435-336-336-336c-185.568,0-336,150.435-336,336l0,144 L 288,800 l0-144 c0-222.357, 168.006-405.45, 384-429.33L 672,32 
		l-192,0 l0-96 l 192,0 l 96,0 l 192,0 l0,96 l-192,0 l0,194.67 c 215.991,23.88, 384,206.973, 384,429.33l0,144 L 1056,800 z" />
<glyph unicode="&#x4b;" d="M0-64l0,144 c0,215.232, 271.152,296.592, 628.752,329.376c-78.528,48.672-140.16,185.472-172.272,294.72
	C 456.336,704.096, 456.192,704, 456,704C 452.736,704, 384,789.968, 384,896c0,93.024-6.624,170.592, 48.336,188.16C 432.288,1085.456, 432,1086.704, 432,1088
	c0,117.936, 61.008,221.28, 152.976,281.232C 608.736,1428.512, 681.168,1472, 768,1472s 159.264-43.488, 183.024-102.768C 1042.992,1309.28, 1104,1205.936, 1104,1088
	c0-1.296-0.288-2.544-0.336-3.84C 1158.624,1066.592, 1152,989.024, 1152,896c0-106.032-76.224-192-72-192c-0.192,0-0.336,0.096-0.48,0.096
	c-32.112-109.2-93.744-246.048-172.272-294.72C 1264.848,376.592, 1536,298.256, 1536,80l0-144 L0-64 z" />
<glyph unicode="&#x4a;" d="M 1536,608L 1248,896L 1248,1184L 1056,1184L 1056,1088L 768,1376L0,608L 192,608L 192,32L 672,32L 672,416L 864,416L 864,32L 1344,32L 1344,608 	z" />
<glyph unicode="&#x49;" d="M 1344,1376L 288,1376 c-52.8,0-96-43.2-96-96l0-384 l 192,0 L 384,1184 l 864,0 l0-1056 L 384,128 l0,288 L 192,416 l0-384 c0-52.8, 43.197-96, 96-96l 1056,0 c 52.8,0, 96,43.2, 96,96L 1440,1280 
		C 1440,1332.8, 1396.8,1376, 1344,1376zM 576,224L 1008,656L 576,1088L 576,800L0,800L0,512L 576,512 	z" />
<glyph unicode="&#x48;" d="M 976.824,676.454L 1536,290.792L 1536,1178.633 	zM0,1178.633L0,290.792L 559.164,676.508 	zM 768,488.927L 634.497,608.792L0,224L 1536,224L 901.485,608.792 	zM 1489.92,1184L 46.080,1184L 768,641.222 	z" />
<glyph unicode="&#x47;" d="M 1440,608l-96,0 l0,192 c0,318-258,576-576,576S 192,1118, 192,800l0-192 L 96,608 c-53.040,0-96-42.96-96-96l0-384 c0-53.040, 42.96-96, 96-96l 288,0 L 384,800 
	c0,211.872, 172.128,384, 384,384s 384-172.128, 384-384l0-768 l 288,0 c 53.040,0, 96,42.96, 96,96l0,384 C 1536,565.040, 1493.040,608, 1440,608z" />
<glyph unicode="&#x46;" d="M 1440,1280L 96,1280 C 43.2,1280,0,1236.8,0,1184l0-672 c0-52.8, 43.2-96, 96-96l 192,0 l0-288 l 216,288l 936,0 c 52.8,0, 96,43.2, 96,96L 1536,1184 
	C 1536,1236.8, 1492.8,1280, 1440,1280z M 480,704L 288,704 l0,192 l 192,0 L 480,704 z M 864,704l-192,0 l0,192 l 192,0 L 864,704 z M 1248,704l-192,0 l0,192 l 192,0 L 1248,704 z" />
<glyph unicode="&#x45;" d="M 1392,1472L 144,1472 C 64.8,1472,0,1407.2,0,1328l0-960 c0-79.2, 64.8-144, 144-144l 336,0 l 288-288l 288,288l 336,0 c 79.2,0, 144,64.8, 144,144L 1536,1328 
	C 1536,1407.2, 1471.203,1472, 1392,1472z" />
<glyph unicode="&#x44;" d="M 767.979,1447.889C 343.818,1447.889, 0.003,1188.272, 0.003,868.052c0-250.173, 209.853-463.407, 503.889-544.695
	c 4.314-24.312, 9.75-58.938, 9.75-80.361c0-100.875-38.601-196.554-107.364-282.885c 106.332,44.784, 256.425,188.694, 349.419,328.296
	c 4.101-0.048, 8.187-0.252, 12.285-0.252c 424.2,0, 768.021,259.617, 768.021,579.897C 1536.006,1188.272, 1192.185,1447.889, 767.979,1447.889z" />
<glyph unicode="&#x43;" d="M 768,1472C 343.845,1472,0,1128.155,0,704s 343.845-768, 768-768s 768,343.845, 768,768S 1192.155,1472, 768,1472z M 768,128
	c-318.117,0-576,257.883-576,576c0,318.117, 257.883,576, 576,576c 318.117,0, 576-257.883, 576-576C 1344,385.883, 1086.117,128, 768,128z" />
<glyph unicode="&#x42;" d="M 1152,1280l-192,0 L 960,1376 c0,52.8-43.2,96-96,96l-192,0 c-52.806,0-96-43.2-96-96l0-96 l-192,0 l0-192 l 768,0 L 1152,1280 z M 864,1280l-192,0 L 672,1375.829 
		c 0.051,0.057, 0.108,0.117, 0.171,0.171l 191.652,0 c 0.063-0.054, 0.123-0.114, 0.177-0.171L 864,1280 L 864,1280zM 1296,1280l-96,0 l0-96 l 48,0 l0-1152 L 288,32 L 288,1184 l 48,0 L 336,1280 L 240,1280 c-26.403,0-48-21.6-48-48l0-1248 c0-26.4, 21.597-48, 48-48l 1056,0 c 26.4,0, 48,21.6, 48,48L 1344,1232 
		C 1344,1258.4, 1322.4,1280, 1296,1280zM 384,896L 1152,896L 1152,800L 384,800zM 384,608L 1152,608L 1152,512L 384,512zM 384,320L 1152,320L 1152,224L 384,224z" />
<glyph unicode="&#x41;" d="M 1464,1400c-96,96-192,96-288,0l-24-24l 288-288l 24,24C 1560,1208, 1560,1304, 1464,1400zM 96,320L0-64l 384,96l 960,960l-288,288L 96,320z M 384,224l-96,96l 768,768l 96-96L 384,224z" />
<glyph unicode="&#x40;" d="M 960,1376L 1152,1184L 480,512L 576,416L 1248,1088L 1440,896L 1440,1376 	zM 1056,224L 288,224L 288,992L 672,992L 864,1184L 96,1184L 96,32L 1248,32L 1248,800L 1056,608 	z" />
<glyph unicode="&#x3f;" d="M 395.208,332.948c0-40.578, 34.341-60.873, 103.002-60.873c 60.096,0, 90.132,21.063, 90.132,63.201
		c0,39.807-32.769,59.694-98.316,59.694C 426.807,394.976, 395.208,374.306, 395.208,332.948zM 1280.022,1472L 256.032,1472 C 115.218,1472,0,1356.785,0,1215.968l0-1023.939 C0,51.125, 115.218-64, 256.032-64l 1023.99,0 
		C 1420.824-64, 1536,51.125, 1536,192.032L 1536,1215.968 C 1536,1356.785, 1420.827,1472, 1280.022,1472z M 713.592,858.518
		c-10.926-3.906-26.532-8.187-46.818-12.879c 6.24-17.949, 9.369-34.728, 9.369-50.331c0-49.938-15.027-93.447-45.066-130.518
		c-30.045-37.062-68.868-59.109-116.469-66.129c-31.206-4.689-46.812-21.468-46.812-50.337c0-10.143, 5.067-20.295, 15.216-30.435
		c 13.266-14.829, 32.772-24.198, 58.527-28.101c 111.585-17.163, 167.379-63.591, 167.379-139.281c0-120.963-72.186-181.443-216.543-181.443
		c-59.313,0-108.084,10.539-146.316,31.605c-48.387,26.532-72.564,68.28-72.564,125.25c0,65.556, 36.288,110.424, 108.846,134.607l0,2.34 
		c-26.526,16.386-39.789,41.355-39.789,74.916c0,43.698, 12.486,71.016, 37.452,81.933l0,2.343 c-24.969,8.586-47.211,28.098-66.72,58.536
		c-21.846,32.778-32.775,67.89-32.775,105.345c0,56.187, 19.905,103.005, 59.688,140.46c 38.244,35.121, 83.892,52.674, 136.959,52.674
		c 38.241,0, 73.737-9.357, 106.515-28.083c 37.455,0, 80.763,9.36, 129.939,28.083L 713.592,858.518L 713.592,858.518z M 903.267,453.509
		l-132.279,0 c 1.563,15.603, 2.337,42.126, 2.337,79.596L 773.325,897.143 c0,36.681-0.783,62.046-2.337,76.077l 132.279,0 
		c-1.563-14.826-2.343-39.405-2.343-73.746l0-359.346 C 900.924,500.327, 901.707,471.452, 903.267,453.509z M 894.477,1090.277
		c-15.996-17.166-34.923-25.743-56.769-25.743c-22.629,0-41.937,8.577-57.939,25.743c-15.999,17.178-24.003,37.458-24.003,60.867
		c0,24.201, 8.004,44.868, 24.003,62.049c 15.999,17.163, 35.31,25.752, 57.939,25.752c 21.846,0, 40.776-8.589, 56.769-25.752
		c 15.999-17.184, 23.997-37.845, 23.997-62.049C 918.474,1127.735, 910.476,1107.452, 894.477,1090.277z M 1262.535,468.728
		c-28.881-15.615-63.609-23.409-104.187-23.409c-56.955,0-96.372,20.28-118.215,60.861c-16.395,30.435-24.579,78.42-24.579,143.97l0,209.526 
		l 1.167,0 l0,2.343 l-17.559,1.173c-10.146,0-23.418-1.173-39.801-3.513L 959.361,973.22 l 57.351,0 l0,45.648 c0,21.855-1.167,39.42-3.51,52.68l 135.777,0 
		c-2.325-14.82-3.504-31.599-3.504-50.328l0-47.997 l 101.829,0 l0-113.538 c-3.897,0-11.115,0.387-21.654,1.167
		c-10.536,0.783-20.484,1.179-29.847,1.179l-50.331,0 l0-217.716 c0-52.296, 17.175-78.435, 51.501-78.435c 24.189,0, 46.044,6.627, 65.562,19.896
		L 1262.535,468.728 L 1262.535,468.728zM 481.824,871.391c-49.164,0-73.746-28.881-73.746-86.619c0-53.853, 24.582-80.772, 73.746-80.772
		c 47.604,0, 71.403,27.312, 71.403,81.939c0,22.635-5.46,42.141-16.383,58.533C 523.575,862.415, 505.233,871.391, 481.824,871.391z" />
<glyph unicode="&#x3e;" d="M 352.917,1098.92c-76.188,0-141.726-25.209-196.626-75.624c-57.129-53.778-85.71-120.99-85.71-201.654
		c0-53.778, 15.564-104.193, 46.941-151.248c 28.011-43.689, 57.27-71.709, 95.667-84.036l0-3.363 c-38.397-15.672-55.449-54.885-55.449-117.627
		c0-48.186, 17.058-84.033, 55.449-107.562l0-3.363 c-105.981-34.719-154.488-99.141-154.488-193.245c0-81.801, 35.622-141.732, 105.099-179.817
		C 218.685-48.877, 289.167-64, 374.319-64c 207.255,0, 311.109,86.823, 311.109,260.496c0,108.669-79.983,175.323-240.192,199.974
		c-36.969,5.589-64.929,19.044-83.973,40.335c-14.562,14.562-21.813,29.127-21.813,43.689c0,41.448, 22.437,65.544, 67.23,72.264
		c 68.337,10.071, 124.092,41.736, 167.229,94.944c 43.125,53.22, 64.695,115.677, 64.695,187.374c0,22.407-6.777,46.494-15.732,72.258
		c 29.127,6.732, 49.575,12.891, 64.938,18.498L 687.81,1098.92 c-67.581-26.892-130.485-40.326-184.263-40.326
		C 456.486,1085.477, 407.811,1098.92, 352.917,1098.92z M 371.403,260.345c 94.116,0, 141.156-28.563, 141.156-85.71
		c0-60.504-43.131-90.738-129.396-90.738c-98.586,0-147.879,29.133-147.879,87.381C 235.281,230.663, 280.65,260.345, 371.403,260.345z
		 M 359.64,704c-70.581,0-105.879,38.646-105.879,115.962c0,82.893, 35.298,124.359, 105.879,124.359c 33.603,0, 59.937-12.894, 78.978-38.652
		c 15.687-23.535, 23.535-51.54, 23.535-84.033C 462.153,743.219, 427.974,704, 359.64,704zM 870.576,1472c-32.484,0-60.21-12.321-83.181-36.972c-22.971-24.654-34.455-54.324-34.455-89.064
		c0-33.615, 11.487-62.73, 34.455-87.387c 22.962-24.651, 50.688-36.96, 83.181-36.96c 31.365,0, 58.542,12.312, 81.51,36.96
		c 22.968,24.657, 34.44,53.772, 34.44,87.387c0,34.74-11.472,64.416-34.44,89.064C 929.109,1459.679, 901.941,1472, 870.576,1472zM 964.695,1088.003l-189.909,0 c 2.244-21.504-0.96-54.063-0.96-106.71l0-522.648 c0-53.784, 3.204-97.161, 0.96-114.054l 189.909,0 
		c-2.25,24.564-8.091,67.002-8.091,124.137L 956.604,984.647 C 956.595,1033.943, 962.445,1066.499, 964.695,1088.003zM 1383.504,505.7c-49.308,0-73.623,37.542-73.623,112.599l0,309.96 l 74.796,0 c 13.44,0, 25.548,0.738, 40.677-0.369
		c 15.129-1.122, 21.228-0.375, 28.917-0.375l0,160.485 l-144.387,0 l0,71.424 c0,26.883, 4.224,51.453, 7.581,66.813l-194.937,0 
		c 3.363-15.36, 3.042-38.814, 3.042-70.185L 1125.57,1088 l-84.48,0 l0-160.482 c 23.046,3.36, 43.635,5.034, 58.194,5.034l 26.286-1.677l0-0.876 l0,0l0-303.303 
		c0-94.113, 11.937-163.008, 35.454-206.7c 31.383-58.26, 86.433-87.387, 168.204-87.387c 58.272,0, 109.677,11.196, 148.071,33.615l0,168.048 
		C 1446.588,515.222, 1418.226,505.7, 1383.504,505.7z" />
<glyph unicode="&#x3d;" d="M 851.484,366.626c-122.916-57.177-237.237-56.574-314.010-51.030c-91.578,6.615-165.237,31.686-197.613,53.598
		c-19.95,13.509-47.076,8.283-60.585-11.673c-13.506-19.953-8.28-47.079, 11.673-60.585c 52.047-35.229, 144.102-61.431, 240.243-68.37
		c 16.299-1.176, 34.197-1.917, 53.469-1.917c 83.673,0, 189.939,7.974, 303.63,60.855c 21.846,10.167, 31.317,36.111, 21.156,57.96
		C 899.283,367.313, 873.333,376.772, 851.484,366.626zM 1336.422,431.276c 4.179,379.032, 43.143,1095.309-682.455,1037.418C-62.433,1411.031, 127.521,654.242, 116.844,400.769
		C 107.382,266.69, 62.877,102.797,0-64l 193.65,0 c 19.899,70.683, 34.536,140.58, 40.848,207.225c 11.673-8.142, 24.162-16.011, 37.491-23.55
		c 21.687-12.777, 40.326-29.766, 60.060-47.751c 46.116-42.027, 98.385-89.661, 200.568-95.628c 6.858-0.393, 13.761-0.591, 20.514-0.591
		c 103.344,0, 174.021,45.231, 230.817,81.573c 27.21,17.418, 50.727,32.46, 72.846,39.678c 62.865,19.68, 117.798,51.444, 158.856,91.878
		c 6.414,6.312, 12.363,12.807, 17.943,19.422c 22.869-83.817, 54.177-178.137, 88.932-272.256L 1536-64 
		C 1436.739,89.336, 1334.346,239.561, 1336.422,431.276z M 186.165,637.472c0,0.024,0,0.045-0.003,0.069
		c-7.119,123.693, 52.065,227.748, 132.189,232.404c 80.118,4.659, 150.84-91.842, 157.956-215.538c0-0.021, 0.006-0.045, 0.006-0.066
		c 0.384-6.669, 0.552-13.269, 0.555-19.809c-25.386-6.384-48.288-15.654-68.808-26.445c-0.078,0.918-0.138,1.824-0.228,2.745
		c0,0.012,0,0.027,0,0.039c-6.855,70.215-44.358,123.24-83.778,118.437c-39.42-4.806-65.82-65.625-58.968-135.837
		c0-0.015, 0.006-0.027, 0.006-0.039c 2.988-30.612, 11.802-57.954, 24.063-78.666c-3.051-2.406-11.676-8.718-21.609-15.984
		c-7.455-5.451-16.53-12.087-27.471-20.145C 210.252,517.778, 189.816,574.007, 186.165,637.472z M 997.89,331.733
		c-2.85-65.379-88.362-126.888-167.373-151.566l-0.444-0.144c-32.85-10.653-62.142-29.4-93.156-49.245
		c-52.098-33.336-105.969-67.812-183.783-67.812c-5.106,0-10.341,0.156-15.489,0.444c-71.274,4.167-104.613,34.548-146.82,73.014
		c-22.263,20.289-45.285,41.271-74.964,58.686l-0.636,0.366c-64.059,36.156-103.818,81.123-106.362,120.291
		c-1.263,19.47, 7.407,36.327, 25.773,50.1c 39.954,29.958, 66.717,49.533, 84.426,62.487c 19.665,14.382, 25.602,18.72, 30,22.896
		c 3.144,2.979, 6.546,6.282, 10.206,9.843c 36.669,35.661, 98.040,95.343, 192.225,95.343c 57.606,0, 121.347-22.2, 189.255-65.853
		c 31.986-20.817, 59.823-30.429, 95.070-42.6c 24.234-8.367, 51.702-17.853, 88.488-33.606l 0.594-0.246
		C 959.22,400.025, 999.744,374.285, 997.89,331.733z M 978.969,485.291c-6.6,3.321-13.461,6.48-20.616,9.429
		c-33.159,14.184-59.748,23.811-81.801,31.497c 12.174,23.841, 19.74,53.58, 20.436,85.863c0,0.015,0,0.033,0,0.045
		c 1.689,78.561-37.932,142.344-88.494,142.464c-50.565,0.117-92.925-63.471-94.614-142.029c0-0.015,0-0.027,0-0.042
		c-0.057-2.571-0.063-5.124-0.030-7.665c-31.143,14.328-61.77,24.735-91.749,31.14c-0.138,2.952-0.306,5.898-0.366,8.88
		c0,0.024,0,0.054,0,0.075c-2.907,143.118, 84.903,261.585, 196.131,264.603c 111.225,3.021, 203.742-110.55, 206.658-253.665
		c0-0.027,0-0.057,0-0.078C 1025.835,591.089, 1008.534,531.509, 978.969,485.291z" />
<glyph unicode="&#x3c;" d="M 1344,416L 1344,224L 192,224L 192,416L0,416L0,32L 1536,32L 1536,416 	zM 1152,896L 864,896L 864,1376L 672,1376L 672,896L 384,896L 768,320 	z" />
<glyph unicode="&#x3b;" d="M 1440,1280L 960,1280 L 960,1424 c0,26.508-21.489,48-48,48l-288,0 c-26.508,0-48-21.492-48-48l0-144 L 96,1280 L0,1088l 192,0 l 96-1152l 960,0 l 96,1152l 192,0 L 1440,1280z M 672,128
	l-192,0 L 480,992 l 192,0 L 672,128 z M 672,1376l 192,0 l0-96 l-192,0 L 672,1376 z M 1056,128l-192,0 L 864,992 l 192,0 L 1056,128 z" />
<glyph unicode="&#x3a;" d="M0,224L 1536,224L 1536,32L0,32zM 192,608L 384,608L 384,320L 192,320zM 480,992L 672,992L 672,320L 480,320zM 768,704L 960,704L 960,320L 768,320zM 1056,1280L 1248,1280L 1248,320L 1056,320z" />
<glyph unicode="&#x39;" d="M 672,608L 672,1280 C 300.864,1280,0,979.136,0,608s 300.864-672, 672-672s 672,300.864, 672,672c0,108.051-25.542,210.126-70.854,300.573
		L 672,608zM 1369.146,1100.573C 1258.818,1320.797, 1031.085,1472, 768,1472l0-672 L 1369.146,1100.573z" />
<glyph unicode="&#x38;" d="M 432,992L 240,992 c-26.4,0-48-21.6-48-48l0-96 c0-26.4, 21.6-48, 48-48l 192,0 c 26.4,0, 48,21.6, 48,48l0,96 C 480,970.4, 458.4,992, 432,992zM 288,1280L 384,1280L 384,1040L 288,1040zM 288,752L 384,752L 384,128L 288,128zM 816,608l-192,0 c-26.4,0-48-21.6-48-48l0-96 c0-26.4, 21.6-48, 48-48l 192,0 c 26.403,0, 48,21.6, 48,48l0,96 C 864,586.4, 842.403,608, 816,608zM 672.003,1280L 768.003,1280L 768.003,656L 672.003,656zM 672.003,368L 768.003,368L 768.003,128L 672.003,128zM 1200,896l-192,0 c-26.397,0-48-21.6-48-48l0-96 c0-26.4, 21.603-48, 48-48l 192,0 c 26.403,0, 48,21.6, 48,48l0,96 C 1248,874.4, 1226.403,896, 1200,896zM 1056,1280L 1152,1280L 1152,944L 1056,944zM 1056,656L 1152,656L 1152,128L 1056,128zM 1320,1472L 120,1472 C 53.832,1472,0,1418.168,0,1352l0-1296 c0-66.168, 53.832-120, 120-120l 1200,0 c 66.168,0, 120,53.832, 120,120L 1440,1352 
		C 1440,1418.168, 1386.168,1472, 1320,1472z M 1344,56c0-13.2-10.8-24-24-24L 120,32 c-13.2,0-24,10.8-24,24L 96,1352 c0,13.2, 10.8,24, 24,24l 1200,0 c 13.2,0, 24-10.8, 24-24L 1344,56 z" />
<glyph unicode="&#x37;" d="M 1523.646,1267.649L 1344,1088l-192,192l 179.646,179.649C 1305.171,1467.671, 1277.094,1472, 1248,1472c-159.063,0-288-128.94-288-288
	c0-29.091, 4.326-57.171, 12.348-83.646L 371.646,499.649C 345.171,507.671, 317.094,512, 288,512c-159.063,0-288-128.94-288-288
	c0-29.091, 4.326-57.174, 12.351-83.646L 192,320l 192-192l-179.649-179.646C 230.829-59.668, 258.906-64, 288-64c 159.060,0, 288,128.943, 288,288
	c0,29.094-4.332,57.177-12.354,83.649l 600.702,600.705C 1190.829,900.332, 1218.906,896, 1248,896c 159.060,0, 288,128.943, 288,288
	C 1536,1213.094, 1531.668,1241.174, 1523.646,1267.649z" />
<glyph unicode="&#x36;" d="M 1152,1376c-212.076,0-384-171.924-384-384l0-192 L 48,800 c-26.4,0-48-21.6-48-48l0-672 c0-26.4, 21.6-48, 48-48l 864,0 c 26.4,0, 48,21.6, 48,48L 960,752 
	c0,26.4-21.6,48-48,48l-48,0 l0,192 c0,159.060, 128.94,288, 288,288s 288-128.94, 288-288l0-192 l 96,0 l0,192 C 1536,1204.076, 1364.079,1376, 1152,1376z M 559.395,439.877
	L 576,224l-192,0 l 16.605,215.877C 361.683,465.653, 336,509.816, 336,560c0,79.53, 64.47,144, 144,144s 144-64.47, 144-144
	C 624,509.816, 598.317,465.653, 559.395,439.877z" />
<glyph unicode="&#x35;" d="M 912,800l-48,0 l0,192 c0,212.076-171.924,384-384,384S 96,1204.076, 96,992l0-192 L 48,800 c-26.4,0-48-21.6-48-48l0-672 c0-26.4, 21.6-48, 48-48l 864,0 
	c 26.4,0, 48,21.6, 48,48L 960,752 C 960,778.4, 938.4,800, 912,800z M 559.395,439.877L 576,224l-192,0 l 16.605,215.877
	C 361.683,465.653, 336,509.816, 336,560c0,79.53, 64.47,144, 144,144s 144-64.47, 144-144C 624,509.816, 598.317,465.653, 559.395,439.877z M 192,800
	l0,192 c0,159.060, 128.94,288, 288,288s 288-128.94, 288-288l0-192 L 192,800 z" />
<glyph unicode="&#x34;" d="M 1248,1376L 288,1376 L0,1088l0-1008 c0-26.511, 21.489-48, 48-48l 1440,0 c 26.508,0, 48,21.489, 48,48L 1536,1088 L 1248,1376z M 768,224L 288,608l 288,0 l0,288 l 384,0 l0-288 l 288,0 
	L 768,224z M 231.765,1184l 96,96l 880.467,0 l 96-96L 231.765,1184 z" />
<glyph unicode="&#x33;" d="M 768,1472C 343.842,1472,0,1364.552,0,1232l0-192 c0-132.549, 343.833-240, 768-240c 424.155,0, 768,107.451, 768,240L 1536,1232 C 1536,1364.552, 1192.155,1472, 768,1472
		zM 765.579,704C 421.698,704, 131.82,774.629, 33.96,872C 11.115,849.269,0,825.083,0,800l0-192 c0-132.552, 343.833-240, 768-240
		c 424.155,0, 768,107.448, 768,240l0,192 c0,25.083-13.548,49.269-36.393,72C 1401.75,774.629, 1109.46,704, 765.579,704zM 765.579,272C 421.698,272, 131.82,342.632, 33.96,440C 11.115,417.272,0,393.083,0,368l0-192 c0-132.549, 343.833-240, 768-240
		c 424.155,0, 768,107.451, 768,240l0,192 c0,25.083-13.548,49.272-36.393,72C 1401.75,342.632, 1109.46,272, 765.579,272z" />
<glyph unicode="&#x32;" d="M 1343.91,521.747c-0.018,1.059-0.045,2.103-0.063,3.159c-0.048,2.142-0.105,4.281-0.177,6.42C 1328.625,1004.798, 768,1472, 768,1472
		S 207.369,1004.798, 192.33,531.317c-0.066-2.145-0.132-4.278-0.18-6.423c-0.021-1.056-0.045-2.103-0.063-3.159
		c-0.054-3.24-0.084-6.486-0.084-9.744c0-3.552, 0.042-7.083, 0.105-10.617c 0.006-0.294, 0.009-0.585, 0.021-0.879
		C 198.246,187.697, 453.723-64, 768-64c 314.274,0, 569.748,251.697, 575.877,564.504c 0.006,0.294, 0.012,0.588, 0.015,0.879
		c 0.063,3.534, 0.108,7.071, 0.108,10.617C 1344,515.258, 1343.964,518.504, 1343.91,521.747z M 1151.925,504.89l-0.012-0.609
		c-1.977-100.929-42.798-195.501-114.939-266.322C 964.761,167.051, 869.229,128, 768,128c-18.693,0-37.191,1.341-55.386,3.957
		c 208.584,124.269, 348.324,352.056, 348.324,612.483c0,29.184-1.77,57.951-5.178,86.22c 60.408-110.91, 93.096-214.2, 96.003-305.439
		l 0.006-0.216c 0.048-1.422, 0.078-2.838, 0.117-4.266l 0.042-2.172C 1151.97,516.383, 1152,514.19, 1152,512
		C 1152,509.624, 1151.97,507.257, 1151.925,504.89z" />
<glyph unicode="&#x31;" d="M0,1472L 672,1472L 672,800L0,800zM 864,1472L 1536,1472L 1536,800L 864,800zM0,608L 672,608L 672-64L0-64zM 864,608L 1536,608L 1536-64L 864-64z" />
<glyph unicode="&#x30;" d="M 768.672,412.064c-1.776,0-3.552,0-5.328,0c-421.536,0-762.48,102.384-762.576,181.008
	l-0.768,308.784c0,0.48, 0.192,0.912, 0.192,1.296c 69.408-32.928, 150.96-48.096, 199.728-57.168c 151.536-28.176, 351.696-43.728, 563.424-43.728l 5.328,0 
	c 213.072,0.24, 414.384,16.176, 567.024,44.832c 48.816,9.168, 130.080,24.432, 199.536,57.168c0-0.144,0-0.432,0-0.432l 0.816-308.784
	C 1536.144,516.080, 1192.704,412.64, 768.672,412.064z M 768.672,895.232c-1.776,0-3.552,0-5.328,0c-421.536,0-762.48,93.408-762.576,172.032
	l-0.768,260.832C-0.144,1407.008, 343.488,1471.472, 767.52,1472c 1.872,0, 3.648,0, 5.52,0c 421.392,0, 762.096-63.36, 762.192-141.984l 0.816-260.832
	C 1536.144,990.272, 1192.704,895.808, 768.672,895.232z M 763.296,319.040l 5.328,0 c 213.072,0.288, 414.432,25.152, 567.024,53.808
	c 48.816,9.168, 130.080,24.432, 199.584,57.216l 0.768-350.208c 0.096-78.96-343.344-143.376-767.376-143.904c-1.824,0-3.552,0-5.424,0
	c-421.44,0-762.384,63.36-762.48,141.936L0,429.008c 69.408-32.976, 151.008-48.144, 199.872-57.216C 351.408,343.568, 551.52,319.040, 763.296,319.040z" />
<glyph unicode="&#x2f;" d="M 934.239,417.896c-33.165,5.277-33.921,96.471-33.921,96.471s 97.452,96.474, 118.692,226.203
	c 57.135,0, 92.427,137.919, 35.283,186.444C 1056.678,978.095, 1127.733,1328, 768,1328c-359.733,0-288.675-349.905-286.296-400.986
	c-57.141-48.525-21.855-186.444, 35.283-186.444c 21.237-129.729, 118.692-226.203, 118.692-226.203s-0.756-91.194-33.921-96.471
	C 494.928,400.898, 96,224.945, 96,32l 672,0 l 672,0 C 1440,224.945, 1041.072,400.898, 934.239,417.896z" />
<glyph unicode="&#x2e;" d="M 96,416L 288,416L 288-64L 96-64zM 480,608L 672,608L 672-64L 480-64zM 864,704L 1056,704L 1056-64L 864-64zM 1248,992L 1440,992L 1440-64L 1248-64zM 1152,1472L 1248,1376L 864,992L 672,1184L 96,608L 192,512L 672,992L 864,800L 1344,1280L 1440,1184L 1440,1472 	z" />
<glyph unicode="&#x2d;" d="M 1400.685,556.625c-80.589,139.581-32.124,318.456, 108.228,399.732l-150.939,261.438c-43.125-25.281-93.264-39.777-146.769-39.777
	c-161.304,0-292.062,131.619-292.062,293.985L 617.256,1472.003 c 0.399-50.115-12.111-100.923-38.937-147.378
	c-80.586-139.584-259.734-187.053-400.293-106.137L 27.090,957.050c 43.455-24.708, 81.075-60.882, 107.829-107.217
	c 80.457-139.362, 32.268-317.88-107.562-399.336l 150.939-261.438c 42.975,25.044, 92.874,39.381, 146.1,39.381
	c 160.794,0, 291.216-130.788, 292.050-292.437l 301.881,0 c-0.129,49.611, 12.408,99.855, 38.949,145.827
	c 80.454,139.359, 259.164,186.891, 399.621,106.518l 150.939,261.435C 1464.666,474.482, 1427.298,510.53, 1400.685,556.625z M 768,393.002
	c-171.762,0-311.004,139.236-311.004,311.001c0,171.762, 139.239,311.001, 311.004,311.001c 171.762,0, 310.998-139.239, 310.998-311.001
	C 1078.995,532.238, 939.762,393.002, 768,393.002z" />
<glyph unicode="&#x2c;" d="M 1536,704c-1.917,100.293-23.676,200.274-63.864,291.693c-40.056,91.5-98.193,174.387-169.563,242.88
	c-71.328,68.544-155.916,122.73-247.476,158.478C 963.591,1432.937, 865.203,1450.079, 768,1448c-97.215-1.923-193.998-23.061-282.501-62.034
	c-88.572-38.844-168.813-95.205-235.101-164.364c-66.336-69.123-118.74-151.062-153.279-239.697C 62.448,893.312, 45.927,798.125, 48,704
	c 1.929-94.14, 22.446-187.722, 60.201-273.309c 37.632-85.65, 92.214-163.242, 159.165-227.322c 66.915-64.131, 146.208-114.756, 231.921-148.080
	C 584.964,21.833, 676.956,5.936, 768,8c 91.062,1.935, 181.443,21.831, 264.114,58.371c 82.725,36.423, 157.674,89.22, 219.549,153.966
	c 61.923,64.71, 110.766,141.354, 142.881,224.145c 19.551,50.187, 32.82,102.6, 39.813,155.697c 1.869-0.108, 3.747-0.18, 5.643-0.18
	c 53.019,0, 96,42.978, 96,96c0,2.694-0.141,5.358-0.357,7.998L 1536,703.997 z M 1383.459,449.078c-35.208-79.803-86.226-152.1-148.767-211.77
	c-62.505-59.715-136.5-106.779-216.366-137.685C 938.484,68.606, 852.891,53.945, 768,56c-84.906,1.947-168.894,20.604-245.73,54.711
	c-76.875,33.999-146.526,83.235-203.991,143.568c-57.507,60.297-102.792,131.646-132.483,208.587C 155.991,539.792, 141.954,622.187, 144,704
	c 1.953,81.828, 19.992,162.618, 52.881,236.535c 32.787,73.95, 80.247,140.955, 138.369,196.215c 58.095,55.302, 126.795,98.805, 200.811,127.284
	C 610.068,1292.624, 689.265,1306.043, 768,1304c 78.75-1.959, 156.342-19.377, 227.343-51.051c 71.028-31.575, 135.384-77.253, 188.436-133.173
	c 53.094-55.887, 94.815-121.941, 122.085-193.032C 1333.236,855.656, 1346.037,779.657, 1344,704l 0.357,0 c-0.216-2.64-0.357-5.304-0.357-7.998
	c0-49.518, 37.488-90.261, 85.629-95.436C 1420.293,548.333, 1404.834,497.339, 1383.459,449.078z" />
<glyph unicode="&#x2b;" d="M 960,1353.713L 960,896 L 576,896 L 576,1353.713 C 432.603,1320.362, 288,1243.928, 288,1088l0-636 c0-231.954, 214.902-420, 480-420c 265.089,0, 480,188.046, 480,420
		L 1248,1088 C 1248,1243.928, 1103.397,1320.362, 960,1353.713zM 864,1370.201C 828.831,1374.263, 795.963,1376, 768,1376c-27.96,0-60.828-1.737-96-5.799L 672,992 l 192,0 L 864,1370.201 z" />
<glyph unicode="&#x2a;" d="M0,1280l0-1152 l 1536,0 L 1536,1280 L0,1280 z M 1440,224l-96,0 l-288,432l-192-144L 480,992L 192,224L 96,224 L 96,1184 l 1344,0 L 1440,224 zM 1056,944A144,144 11340 1 1 1344,944A144,144 11340 1 1 1056,944z" />
<glyph unicode="&#x29;" d="M 673.872,898.208L 673.872,1376 L 0,704L 673.872,32L 673.872,514.016 C 1016.352,514.016, 1354.368,454.4, 1536,171.488
	C 1517.088,687.056, 1131.36,809.792, 673.872,898.208z" />
<glyph unicode="&#x28;" d="M 1311.072,161.024c-300-300-786.24-300-1086.144,0
	c-300,299.808-300,786.144,0,1086.048c 299.904,299.904, 786.144,299.904, 1086.144,0C 1610.976,947.168, 1610.976,460.832, 1311.072,161.024z M 576,800L 384,800 l0-576 l 192,0 L 576,800 z
	 M 864,1184L 672,1184 l0-960 l 192,0 L 864,1184 z M 1152,992l-192,0 l0-768 l 192,0 L 1152,992 z" />
<glyph unicode="&#x27;" d="M 768-64c-424.128,0-768,343.872-768,768c0,424.128, 343.872,768, 768,768s 768-343.872, 768-768
	C 1536,279.872, 1192.128-64, 768-64z M 768,1088C 555.936,1088, 384,916.064, 384,704s 171.936-384, 384-384s 384,171.936, 384,384S 980.064,1088, 768,1088z" />
<glyph unicode="&#x26;" d="M 1311.072,160.928c-300-299.904-786.144-299.904-1086.144,0
	c-299.904,300-299.904,786.144,0,1086.144c 300,299.904, 786.144,299.904, 1086.144,0C 1610.976,947.072, 1610.976,460.928, 1311.072,160.928z M 480,1088L 191.616,705.632
	L 384,705.632 L 384,320 l 192,0 L 576,705.632 l 192.384,0 L 480,1088z M 1152,992l-192,0 l0-382.56 L 767.616,609.44 L 1056,224l 288.384,385.44L 1152,609.44 L 1152,992 z" />
<glyph unicode="&#x25;" d="M 1311.072,160.928c-300-299.904-786.144-299.904-1086.144,0
	c-299.904,300-299.904,786.144,0,1086.144c 300,299.904, 786.144,299.904, 1086.144,0C 1610.976,947.072, 1610.976,460.928, 1311.072,160.928z M 1008,704
	c-30.816,0-60.192-6.336-87.264-16.992L 751.008,856.736C 761.664,883.808, 768,913.184, 768,944C 768,1076.576, 660.576,1184, 528,1184C 508.032,1184, 488.928,1180.832, 470.304,1176.224
	C 530.784,1159.136, 576,1105.952, 576,1040C 576,960.512, 511.488,896, 432,896C 366.048,896, 312.864,941.216, 295.776,1001.696C 291.168,983.072, 288,963.968, 288,944
	C 288,811.424, 395.424,704, 528,704c 30.816,0, 60.192,6.336, 87.264,16.992l 169.728-169.728C 774.336,524.192, 768,494.816, 768,464c0-132.576, 107.424-240, 240-240
	c 19.968,0, 39.072,3.168, 57.696,7.776C 1005.216,248.864, 960,302.048, 960,368c0,79.488, 64.512,144, 144,144c 65.952,0, 119.136-45.216, 136.224-105.696
	C 1244.832,424.928, 1248,444.032, 1248,464C 1248,596.576, 1140.576,704, 1008,704z" />
<glyph unicode="&#x24;" d="M 768-64c-424.128,0-768,343.872-768,768c0,424.128, 343.872,768, 768,768s 768-343.872, 768-768
	C 1536,279.872, 1192.128-64, 768-64z M 1152,992c0,52.992-42.912,96-96,96L 480,1088 C 426.912,1088, 384,1044.992, 384,992l0-576 c0-53.088, 42.912-96, 96-96l 576,0 c 53.088,0, 96,42.912, 96,96L 1152,992 z" />
<glyph unicode="&#x23;" d="M 768-64c-424.128,0-768,343.872-768,768c0,424.128, 343.872,768, 768,768s 768-343.872, 768-768
	C 1536,279.872, 1192.128-64, 768-64z M 384,992l0-576 c0-53.088, 42.912-96, 96-96l 192,0 L 672,1088 L 480,1088 C 426.912,1088, 384,1044.992, 384,992z M 1152,992c0,52.992-42.912,96-96,96L 864,1088 l0-768 l 192,0 
	c 53.088,0, 96,42.912, 96,96L 1152,992 z" />
<glyph unicode="&#x22;" d="M 768-64c-424.128,0-768,343.872-768,768c0,424.128, 343.872,768, 768,768s 768-343.872, 768-768
	C 1536,279.872, 1192.128-64, 768-64z M 576,1087.424l0-766.848 L 1152,704L 576,1087.424z" />
<glyph unicode="&#x21;" d="M 1310.976,161.024c-299.808-300-786.144-300-1086.048,0
	c-300,299.808-300,786.144,0,1086.048c 299.904,300, 786.24,300, 1086.048,0C 1610.976,947.171, 1610.976,460.832, 1310.976,161.024z M 1152,1088.006L 383.994,1088.006 l0-192 l 768,0 L 1152,1088.006 z
	 M 1152,800L 383.994,800 l0-192 l 768,0 L 1152,800 z M 1152,512L 383.994,512 l0-192 l 768,0 L 1152,512 z" />
<glyph unicode="&#x60;" d="M 1311.072,160.928c-300-299.904-786.144-299.904-1086.144,0
	c-299.904,300-299.904,786.144,0,1086.144c 300,299.904, 786.144,299.904, 1086.144,0C 1610.976,947.072, 1610.976,460.928, 1311.072,160.928z M 1248,1088L 672,1088 
	c0,53.088-42.912,96-96,96L 384,1184 C 330.912,1184, 288,1141.088, 288,1088C 234.912,1088, 192,1045.088, 192,992l0-576 c0-53.088, 42.912-96, 96-96l 960,0 c 53.088,0, 96,42.912, 96,96L 1344,992 
	C 1344,1045.088, 1301.088,1088, 1248,1088z M 1008,416C 875.424,416, 768,523.424, 768,656S 875.424,896, 1008,896S 1248,788.576, 1248,656S 1140.576,416, 1008,416z M 1008,800
	c-22.176,0-42.624-5.952-61.44-14.976C 954.72,776.384, 960,764.864, 960,752C 960,725.504, 938.496,704, 912,704C 899.136,704, 887.52,709.28, 878.976,717.44
	C 869.952,698.624, 864,678.176, 864,656C 864,576.512, 928.512,512, 1008,512S 1152,576.512, 1152,656S 1087.488,800, 1008,800z M 624,800l-96,0 C 501.504,800, 480,821.504, 480,848
	S 501.504,896, 528,896L 576,896 l 48,0 C 650.496,896, 672,874.496, 672,848S 650.496,800, 624,800z M 336,800C 309.504,800, 288,821.504, 288,848S 309.504,896, 336,896S 384,874.496, 384,848
	S 362.496,800, 336,800z" data-tags="camera, picture, image, photo, capture, shoot" />
<glyph unicode="&#x61;" d="M 768-64c-424.128,0-768,343.872-768,768c0,424.128, 343.872,768, 768,768c 424.128,0, 768-343.872, 768-768
	C 1536,279.872, 1192.128-64, 768-64z M 360.672,296.768l 474.816,68.16L 428.928,771.584L 360.672,296.768z M 672,704c0-52.992, 43.008-96, 96-96s 96,43.008, 96,96S 820.992,800, 768,800
	S 672,756.992, 672,704z M 700.416,1043.072l 406.656-406.656l 68.16,474.816L 700.416,1043.072z" data-tags="resize, game, expand" />
<glyph unicode="&#x20;" horiz-adv-x="768" />
<glyph class="hidden" unicode="&#xf000;" d="M0,1472L 1536 -64L0 -64 z" horiz-adv-x="0" />
</font>
</defs>
</svg>
